<svg width="33" height="34" viewBox="0 0 33 34" fill="none" xmlns="http://www.w3.org/2000/svg">
<path d="M16.5 0.75C13.2861 0.75 10.1443 1.70305 7.47199 3.48862C4.79969 5.27419 2.71689 7.81209 1.48696 10.7814C0.257041 13.7507 -0.0647633 17.018 0.562247 20.1702C1.18926 23.3224 2.73692 26.2179 5.00952 28.4905C7.28213 30.7631 10.1776 32.3107 13.3298 32.9378C16.482 33.5648 19.7493 33.243 22.7186 32.013C25.6879 30.7831 28.2258 28.7003 30.0114 26.028C31.797 23.3557 32.75 20.2139 32.75 17C32.745 12.6918 31.0314 8.56139 27.985 5.515C24.9386 2.4686 20.8083 0.754962 16.5 0.75ZM30.1906 15.75H23.9672C23.6875 10.0453 21.4906 6.01094 19.6891 3.625C22.4864 4.29674 25.0033 5.82714 26.8869 8.00159C28.7705 10.176 29.9263 12.8855 30.1922 15.75H30.1906ZM11.5359 18.25H21.4641C21.1031 24.7516 17.9906 28.7359 16.5 30.2812C15.0078 28.7344 11.8969 24.75 11.5359 18.25ZM11.5359 15.75C11.8969 9.24844 15.0094 5.26406 16.5 3.71875C17.9922 5.27031 21.1031 9.25469 21.4641 15.75H11.5359ZM13.3109 3.625C11.5094 6.01094 9.31251 10.0453 9.03282 15.75H2.80782C3.07375 12.8855 4.22955 10.176 6.11313 8.00159C7.99672 5.82714 10.5136 4.29674 13.3109 3.625ZM2.80782 18.25H9.03282C9.31719 23.9547 11.5094 27.9891 13.3109 30.375C10.5136 29.7033 7.99672 28.1729 6.11313 25.9984C4.22955 23.824 3.07375 21.1145 2.80782 18.25ZM19.6828 30.375C21.4844 27.9891 23.6766 23.9547 23.9609 18.25H30.1859C29.9204 21.1137 28.7655 23.8225 26.8831 25.9969C25.0008 28.1712 22.4852 29.7021 19.6891 30.375H19.6828Z" fill="#FEFAF5"/>
</svg>
