<svg width="214" height="43" viewBox="0 0 214 43" fill="none" xmlns="http://www.w3.org/2000/svg">
<path d="M22.9184 42.0567L19.595 39.0771C15.7368 35.6009 12.5471 32.6022 10.0259 30.081C7.50471 27.5598 5.49921 25.2965 4.00941 23.291C2.51961 21.2855 1.47866 19.4423 0.886563 17.7615C0.294463 16.0807 -0.00158691 14.3617 -0.00158691 12.6045C-0.00158691 9.01373 1.20171 6.01503 3.60831 3.60843C6.01491 1.20184 9.01361 -0.00146484 12.6044 -0.00146484C14.5908 -0.00146484 16.4817 0.418735 18.2771 1.25914C20.0725 2.09954 21.6196 3.28374 22.9184 4.81174C24.2172 3.28374 25.7643 2.09954 27.5597 1.25914C29.3551 0.418735 31.246 -0.00146484 33.2324 -0.00146484C36.8232 -0.00146484 39.8219 1.20184 42.2285 3.60843C44.6351 6.01503 45.8384 9.01373 45.8384 12.6045C45.8384 14.3617 45.5424 16.0807 44.9503 17.7615C44.3582 19.4423 43.3172 21.2855 41.8274 23.291C40.3376 25.2965 38.3321 27.5598 35.8109 30.081C33.2897 32.6022 30.1 35.6009 26.2418 39.0771L22.9184 42.0567Z" fill="white"/>
<g clip-path="url(#clip0_2_6948)">
<path d="M11.3608 25.0849C11.5856 25.2718 12.2329 25.0875 12.4537 25.0049C12.1923 24.9169 11.9363 24.9779 11.7183 24.8194C12.0216 24.3265 13.5695 24.7691 14.168 24.5063C14.1964 24.4996 14.5539 24.2341 14.5539 24.2341C14.6135 23.9795 14.2668 23.9118 14.2681 23.7913C14.2789 23.4582 14.9885 23.4093 15.3298 23.328C15.6994 23.24 16.2249 23.1749 16.455 22.8797C16.7069 22.5492 16.696 22.2513 17.0467 21.9574C17.6912 21.3832 18.2261 21.1055 18.6743 20.3376C18.9058 19.9218 18.9423 19.823 19.4461 19.7931C19.6235 19.7809 19.6492 20.0152 19.8632 19.9041C20.027 19.835 19.9661 19.5791 20.0595 19.4667C20.3614 19.0942 20.658 19.2039 21.029 18.9953C21.4001 18.7867 21.5056 18.2207 21.6234 17.832C22.0283 17.7656 22.2355 18.2571 22.719 18.142C23.1523 18.0688 23.3906 17.6815 23.8036 17.523C24.3304 17.3374 24.6771 17.4051 25.128 17.0272C25.4502 16.7401 25.7318 16.2823 26.1448 16.1238C26.5295 16.6032 26.3766 17.6012 27.0158 17.5091C27.2216 17.4901 28.6515 16.4282 28.244 17.3667C28.6421 17.2719 29.4221 17.2664 29.5534 16.9346C29.5684 17.502 30.0153 17.4857 30.4703 17.3773C30.8901 17.2472 31.1961 17.1443 31.6362 17.0995C32.1048 17.048 32.4108 16.9451 32.6274 16.593C32.8224 16.2761 32.821 15.7655 33.2055 15.6138C33.3437 15.9415 32.9701 17.0222 33.792 16.4357C34.1495 16.1703 34.1562 15.5677 34.3092 15.2007C34.4419 15.3794 34.5178 15.5717 34.5719 15.7992C35.1529 15.8411 35.1041 15.1315 34.9523 14.7469C34.8589 14.8593 34.7804 14.9081 34.8346 15.1356C34.4243 15.053 34.5149 14.5506 34.3334 14.2933C34.2603 14.4911 34.4865 14.5574 34.3077 14.6901C33.5886 14.3205 33.1065 13.6841 32.3224 13.4201C31.8985 13.2807 31.4529 13.1765 31.0358 13.0655C30.6119 12.926 30.2815 12.6742 29.8508 12.5063C29.1236 12.2288 28.2881 12.1273 27.4945 12.076C26.5804 12.0233 26.0671 11.6347 25.2844 11.2502C24.5368 10.8873 23.5171 10.7697 22.7208 10.9593C22.2943 11.061 21.9449 11.2343 21.601 11.5567C21.2787 11.8438 21.1176 12.3029 20.7886 12.5616C20.0019 13.1697 19.0146 12.6837 18.2048 12.8165C17.2528 12.9831 16.5339 13.8756 15.9517 14.5853C14.9957 15.7446 14.1847 17.26 13.6798 18.6725C13.5485 19.0043 13.4592 19.3862 13.2574 19.6747C13.0557 19.9631 12.6846 20.1717 12.5466 20.4751C12.4234 20.7148 12.3828 21.1752 12.4153 21.4379C12.4533 21.8496 12.6442 21.8943 12.7472 22.2003C12.4764 22.3249 12.024 22.1923 11.8941 22.4035C12.6281 22.7095 11.5759 22.9602 11.3958 23.2134C11.2591 23.3962 10.9531 24.1302 10.9721 24.3361C11.4528 24.462 11.136 24.8981 11.3608 25.0849ZM31.575 14.9505L31.617 15.0006C32.244 14.731 31.8636 15.7832 31.6767 16.0081C31.3165 15.8835 31.1972 15.1306 31.575 14.9505ZM28.1667 16.6639C28.0881 16.0816 28.5268 15.5263 28.5051 14.9305C28.4711 14.1573 29.0169 14.8086 28.8477 15.3597C28.7868 15.7349 28.6827 16.8115 28.1667 16.6639ZM21.7382 15.1602C21.7287 14.7417 22.0469 14.8162 22.2365 14.9813C22.3841 15.0964 22.4857 15.523 22.5616 15.7153C22.754 16.2705 23.0452 16.8622 23.1238 17.4445C22.6756 17.5813 21.2819 15.3891 21.7382 15.1602ZM21.0135 13.3795C21.3682 12.724 22.0536 14.2135 21.9453 14.3896C21.6285 14.8257 20.7386 13.8657 21.0135 13.3795ZM20.5859 16.1258C20.659 15.9281 20.8445 15.8238 21.0503 15.8048C21.1032 16.1529 21.4052 16.4115 21.4296 16.7663C21.1371 16.9261 20.6536 16.4102 20.5859 16.1258ZM19.7315 17.0806C19.7098 16.4848 20.2501 16.9871 20.3761 17.1374C20.544 17.3378 20.7107 17.6588 20.8217 17.8727C20.4006 18.1233 19.7343 17.4706 19.7315 17.0806ZM18.7322 17.6793C18.7403 17.5872 18.8256 17.5669 18.9448 17.6888C19.1344 17.854 19.4797 18.0421 19.7113 18.2574C19.8373 18.4077 19.9348 18.5648 19.9186 18.749C19.8158 19.7051 19.0384 18.8385 18.8934 18.4823C18.8379 18.3754 18.6875 17.8703 18.7322 17.6793ZM15.2413 19.8031C14.7633 20.0672 13.9372 19.7531 13.9087 19.1289C14.0658 19.0313 14.2716 19.0124 14.384 19.1058C14.3204 19.0909 14.2703 19.1329 14.2351 19.1112C14.2473 19.2886 15.0747 19.4822 15.2413 19.8031ZM14.4871 20.6739C14.7959 20.3299 15.6206 20.7645 15.6721 21.2331C15.3729 21.3645 14.6537 20.9949 14.4871 20.6739ZM14.5036 22.3829C14.7636 22.5914 15.3026 22.5832 15.3907 22.9529C15.0264 23.19 14.6201 22.7458 14.5036 22.3829Z" fill="#FF3720"/>
<path d="M14.7181 27.3206C15.0648 27.3883 15.3316 27.6253 15.6634 27.7566C16.0236 27.8811 16.4136 27.8784 16.8388 27.8973C17.1436 28.5459 20.5711 28.9314 20.4248 28.0648C20.8432 28.0553 21.3755 28.6497 21.7709 28.7959C22.3004 29.0003 22.8489 28.7795 23.3892 28.6508C24.6688 28.346 25.7643 28.0249 26.933 27.5061C27.7454 27.1322 28.8234 27.1159 29.3988 26.3778C29.6574 26.0757 29.6547 25.6857 29.7792 25.3255C29.9471 24.8948 30.1543 24.7553 30.4697 24.4398C30.7703 24.1879 30.8813 23.7708 31.1535 23.5256C31.4974 23.2033 31.7805 23.2561 32.0689 22.8267C32.2923 22.5031 32.4859 22.3067 32.3409 21.9505C32.1405 21.4874 31.4024 21.543 31.4091 20.9404C31.8777 20.8889 32.1947 21.7149 32.6063 21.677C32.869 21.6444 33.2102 20.9321 33.2765 20.7059C33.4227 20.3105 33.2724 19.8054 33.4822 19.4248C33.707 18.9806 34.097 18.9779 33.8626 18.3726C33.3805 18.3672 33.5484 17.9366 33.2098 17.7768C32.7656 17.5521 32.675 18.0545 32.3622 18.129C32.0209 18.2103 31.8408 17.8325 31.5076 17.8217C31.054 17.8096 30.9565 18.2836 30.6085 18.3364C30.3174 18.3757 30.0587 18.0467 29.819 17.9235C29.4452 17.7421 29.4371 17.8341 29.0674 17.9222C28.6056 18.0022 27.4586 17.8547 27.372 18.6266C27.3396 18.9949 26.8155 18.9395 26.9252 19.2739C27.0282 19.58 27.4913 19.3795 27.4643 19.8968C26.9618 19.8061 26.7113 19.385 26.3227 19.8983C25.9557 20.3764 25.9165 20.7163 25.1853 20.8003C24.6598 20.8654 24.2563 20.8113 24.427 21.4017C24.5015 21.7145 25.2667 22.4037 24.633 22.6448C24.5584 22.332 24.1304 21.292 23.8338 21.1824C23.4668 21.0294 22.4688 21.5075 22.3944 21.8258C22.5556 21.9977 22.7655 22.2482 22.8481 22.469C22.4297 22.4785 22.3253 21.6619 21.7688 21.9748C21.7864 22.3012 22.0668 22.595 21.9991 22.9417C21.8218 23.5849 21.4317 22.9566 21.2082 22.6493C20.852 22.1632 20.7382 22.1903 20.2291 22.0711C19.3028 21.841 18.7908 21.3319 18.015 22.238C17.6629 22.6524 17.4761 22.8772 17.0685 23.1847C16.711 23.4501 16.6786 23.8185 16.3983 24.1557C16.1681 24.4509 15.7619 24.6379 15.4125 24.8112C14.9129 25.1106 14.9264 25.1675 14.9481 25.7633C14.8154 25.5846 14.6245 25.5399 14.439 25.6442C14.4485 26.0626 14.374 26.3809 14.3064 26.7276C14.2076 27.3221 14.2089 27.2015 14.7181 27.3206ZM27.3549 22.7176C27.1491 22.7366 27.0014 22.6215 26.8173 22.6053C26.8566 22.8964 27.0448 23.1821 26.7876 23.3636C26.4774 23.1971 25.9723 22.7164 25.9695 22.3264C25.9775 21.6033 26.4218 22.4591 26.7996 22.2789C26.7793 22.1936 26.8226 22.1232 26.8023 22.0379C26.8307 22.0311 26.8537 21.8754 26.847 21.8469C27.0352 22.1326 27.3102 22.2775 27.3549 22.7176ZM26.4098 24.1748C26.4721 24.3102 26.6049 24.489 26.7471 24.4551C27.152 24.3887 26.7863 24.1152 26.8946 23.9391C27.0611 23.629 27.4809 23.499 27.718 23.8632C27.6326 23.2525 28.3679 23.4379 28.2676 22.8908C28.3245 22.8773 28.353 22.8705 28.4031 22.8285C28.3786 22.4737 28.1578 21.9253 27.9628 21.6112C27.8097 21.3471 27.1191 20.9707 27.2436 20.6105C27.5225 19.7627 28.4639 21.8224 28.5668 22.1284C28.6698 22.4344 28.6454 22.7107 28.8825 23.0749C29.1059 23.3823 29.3511 23.6545 29.4893 23.9822C29.1222 23.8292 29.0342 23.4595 28.7593 23.3146C29.0153 23.8847 28.4722 23.6234 28.2854 23.8483C28.1053 24.1015 28.498 24.4888 28.3681 24.7C28.0729 25.1009 27.8561 24.1909 27.7573 24.1544C27.4038 24.0583 27.3429 24.4334 27.4608 24.6758C27.3971 24.6609 27.3118 24.6812 27.2414 24.6379C27.3294 25.0076 27.5597 25.3434 27.5841 25.6982C27.06 25.6427 26.8202 24.2574 26.3016 24.9819C26.2054 24.7043 25.8072 24.1681 26.4098 24.1748ZM25.3047 22.8154L25.4523 22.9304C25.6513 22.883 26.0293 23.965 25.5837 23.8608C25.2438 23.8215 25.2884 22.9995 25.3047 22.8154ZM23.4413 22.6883C23.7405 22.5569 23.6742 22.783 23.7785 22.9686C23.9383 23.261 23.9411 23.6511 23.952 23.949C23.5051 23.9653 23.4549 23.3762 23.3167 23.0485C23.2057 22.8346 23.249 22.7641 23.4413 22.6883ZM18.8305 24.7783C18.8968 24.5522 19.0051 24.3761 19.0146 24.1635C19.0525 23.9441 18.7234 23.5718 18.9861 23.5392C19.1797 23.3429 19.4465 23.5798 19.479 23.8425C18.6801 24.2732 19.8287 26.1934 19.1611 26.2923C18.9254 25.8075 18.7114 25.2875 18.8305 24.7783ZM18.1088 25.2808L18.0221 25.4217C18.2997 25.3255 18.4894 26.1217 18.1359 26.0256C17.8177 25.9512 17.8379 25.4055 18.1088 25.2808ZM16.5216 25.1781C16.718 25.3717 16.7506 25.6344 16.7547 25.9039C16.8724 25.5153 16.607 25.1578 16.7464 24.7339C16.8493 24.4089 17.177 24.2707 17.1525 23.9159C17.2013 23.9945 17.2947 23.882 17.2731 23.9173C17.4289 24.5713 17.4506 25.1672 17.6633 25.8077C17.7324 25.9715 18.0019 26.5985 17.6336 26.566C17.3858 26.5349 17.3844 26.0244 17.2083 25.9161C17.2327 26.2709 16.8752 26.5363 16.5205 26.5607C16.5814 26.8167 16.7413 27.1092 16.3932 27.162C15.9937 26.7463 16.0423 25.5627 16.5216 25.1781Z" fill="#FF3720"/>
</g>
<g clip-path="url(#clip1_2_6948)">
<path d="M31.5813 9.23247C31.6208 9.28523 31.7723 9.27889 31.825 9.27238C31.7724 9.23936 31.7131 9.23926 31.6736 9.19309C31.766 9.101 32.0819 9.27938 32.2269 9.25326C32.2335 9.25327 32.3258 9.21389 32.3258 9.21389C32.3522 9.16123 32.2798 9.12817 32.2864 9.10183C32.3063 9.0294 32.4644 9.056 32.5434 9.05613C32.6291 9.05626 32.7476 9.06963 32.8136 9.01703C32.8862 8.95785 32.8994 8.892 32.9917 8.84603C33.1632 8.75407 33.295 8.72134 33.4336 8.57663C33.5061 8.49769 33.5194 8.47795 33.6313 8.49789C33.6708 8.50454 33.6642 8.55723 33.7169 8.54414C33.7564 8.53761 33.7565 8.47832 33.7829 8.4586C33.8686 8.39286 33.9279 8.43248 34.0201 8.40628C34.1124 8.38007 34.1653 8.26158 34.2115 8.18259C34.3038 8.18933 34.3233 8.30794 34.4353 8.30812C34.5341 8.31487 34.6067 8.24251 34.7056 8.2295C34.8308 8.21652 34.9032 8.24957 35.0218 8.19047C35.1076 8.14449 35.1933 8.05899 35.2922 8.04597C35.3513 8.17123 35.2653 8.38191 35.4102 8.39532C35.4563 8.40198 35.8255 8.24446 35.6868 8.4287C35.7791 8.42884 35.9503 8.46864 35.9965 8.40284C35.97 8.52796 36.0687 8.54789 36.1742 8.54805C36.273 8.54162 36.3455 8.53515 36.4443 8.54848C36.5496 8.56183 36.6221 8.55535 36.6881 8.48958C36.7475 8.43038 36.774 8.31843 36.8663 8.3054C36.8793 8.38448 36.7406 8.60166 36.9516 8.51635C37.0439 8.47697 37.077 8.34527 37.1298 8.27288C37.1495 8.31903 37.156 8.36516 37.156 8.41786C37.2811 8.45759 37.3077 8.29952 37.2946 8.20727C37.2683 8.22699 37.2485 8.23355 37.2484 8.28625C37.1628 8.24659 37.2091 8.14125 37.1829 8.07533C37.1564 8.11482 37.2025 8.14124 37.1564 8.16093C37.0182 8.04213 36.946 7.87732 36.7881 7.77825C36.7025 7.72541 36.6103 7.67915 36.5248 7.6329C36.4392 7.58006 36.38 7.5075 36.2945 7.44807C36.1497 7.34902 35.9719 7.28286 35.8007 7.22988C35.6032 7.17028 35.5112 7.05814 35.3598 6.93273C35.2151 6.81391 34.9978 6.73451 34.8134 6.73422C34.7145 6.73406 34.6289 6.75369 34.5365 6.80624C34.4508 6.85222 34.3914 6.94436 34.3057 6.98375C34.1013 7.07565 33.9105 6.91724 33.7261 6.90377C33.5087 6.89025 33.3042 7.04803 33.1393 7.17294C32.8689 7.37673 32.6115 7.66619 32.4266 7.94918C32.3804 8.01498 32.3407 8.09397 32.2814 8.14658C32.222 8.19919 32.1297 8.22539 32.0835 8.28461C32.0439 8.33066 32.0108 8.42943 32.0041 8.48871C31.9908 8.58092 32.0303 8.60074 32.0368 8.67322C31.9709 8.68629 31.8787 8.63344 31.8391 8.67291C31.9839 8.77854 31.7401 8.77816 31.6874 8.82419C31.6478 8.85706 31.5422 9.00183 31.5355 9.04793C31.6342 9.10079 31.5419 9.1797 31.5813 9.23247ZM36.5438 8.07431L36.5504 8.0875C36.702 8.06139 36.5633 8.27198 36.5105 8.31143C36.4381 8.2652 36.4516 8.09393 36.5438 8.07431ZM35.7069 8.27062C35.7202 8.13888 35.8456 8.04026 35.8721 7.90855C35.9053 7.73732 35.9907 7.90874 35.9247 8.02063C35.8916 8.09963 35.8122 8.33008 35.7069 8.27062ZM34.3772 7.60312C34.3971 7.51093 34.4629 7.54397 34.4958 7.59014C34.5221 7.62312 34.5219 7.72194 34.5284 7.76806C34.5414 7.89984 34.5741 8.04483 34.5607 8.17656C34.4553 8.18298 34.2651 7.6293 34.3772 7.60312ZM34.312 7.17481C34.4242 7.04982 34.4961 7.41227 34.4631 7.44515C34.3707 7.52406 34.2262 7.2669 34.312 7.17481ZM34.0739 7.75416C34.1003 7.71468 34.1464 7.70158 34.1925 7.70824C34.1858 7.78728 34.2384 7.85983 34.2251 7.93886C34.1526 7.95851 34.0738 7.82004 34.0739 7.75416ZM33.8365 7.91848C33.863 7.78677 33.955 7.92526 33.9747 7.96482C34.001 8.01756 34.0206 8.09665 34.0337 8.14937C33.9283 8.18214 33.8166 8.00409 33.8365 7.91848ZM33.586 7.99714C33.5926 7.97738 33.6124 7.97742 33.6321 8.01039C33.665 8.05655 33.7307 8.11595 33.7702 8.1753C33.7899 8.21486 33.803 8.25441 33.7897 8.29392C33.717 8.49802 33.5922 8.26725 33.5791 8.18159C33.5726 8.15522 33.5662 8.03663 33.586 7.99714ZM32.7094 8.27902C32.5907 8.31177 32.4262 8.19951 32.4528 8.06121C32.4923 8.0481 32.5384 8.05476 32.5582 8.08114C32.545 8.07453 32.5318 8.0811 32.5252 8.0745C32.5186 8.11402 32.6897 8.19993 32.7094 8.27902ZM32.4983 8.4302C32.584 8.37105 32.7419 8.50965 32.7286 8.61503C32.6561 8.62809 32.5179 8.50929 32.4983 8.4302ZM32.4121 8.80558C32.4581 8.86494 32.5766 8.89148 32.5765 8.97712C32.4842 9.00992 32.4185 8.89123 32.4121 8.80558Z" fill="#FF3720"/>
<path d="M32.1995 9.89894C32.2719 9.93199 32.3179 9.99794 32.3838 10.0442C32.4561 10.0904 32.5418 10.1103 32.6339 10.1368C32.6666 10.295 33.3975 10.5596 33.411 10.362C33.5032 10.3819 33.5885 10.5402 33.6675 10.593C33.7728 10.6656 33.9046 10.6461 34.0298 10.6463C34.3262 10.6468 34.5832 10.634 34.8665 10.5817C35.0642 10.5425 35.3013 10.5956 35.4662 10.4641C35.5388 10.4115 35.5587 10.3259 35.6049 10.2535C35.6643 10.168 35.7171 10.1483 35.8028 10.0957C35.8819 10.0563 35.9282 9.97076 36.0007 9.93134C36.093 9.87879 36.1522 9.90523 36.238 9.82632C36.304 9.76713 36.3567 9.73427 36.3437 9.64861C36.3241 9.53659 36.1595 9.50997 36.1926 9.37827C36.298 9.39161 36.324 9.58929 36.4162 9.60261C36.4755 9.60929 36.5877 9.47113 36.6142 9.42505C36.667 9.34608 36.6606 9.22749 36.7266 9.15513C36.7992 9.0696 36.8848 9.0895 36.8653 8.94454C36.7599 8.91802 36.8193 8.83247 36.7535 8.77966C36.668 8.70706 36.6217 8.81239 36.5493 8.81228C36.4702 8.81215 36.4506 8.71989 36.3782 8.70001C36.2794 8.6735 36.2331 8.77225 36.1541 8.76553C36.0882 8.75884 36.0488 8.67313 36.0027 8.63353C35.9304 8.57413 35.9238 8.59388 35.8381 8.59374C35.7327 8.58699 35.4891 8.49437 35.4296 8.65897C35.4031 8.73799 35.2912 8.69828 35.2976 8.77734C35.3041 8.84982 35.4161 8.83024 35.383 8.94218C35.2777 8.89589 35.2449 8.79044 35.1328 8.88249C35.0272 8.96796 35.0007 9.04039 34.8361 9.02036C34.7175 9.007 34.6319 8.97392 34.6383 9.11228C34.6382 9.18474 34.7696 9.376 34.6181 9.39552C34.6182 9.32306 34.5791 9.07266 34.5198 9.03303C34.4475 8.98022 34.2036 9.03253 34.1706 9.09836C34.1969 9.14451 34.2297 9.21044 34.2362 9.26316C34.144 9.24325 34.1641 9.05882 34.0256 9.09813C34.0124 9.17057 34.0583 9.2497 34.0253 9.32211C33.9526 9.45375 33.9002 9.29556 33.8673 9.21645C33.8148 9.0912 33.7885 9.09116 33.6832 9.03829C33.4923 8.93917 33.4069 8.80068 33.1892 8.95845C33.0903 9.03076 33.0375 9.0702 32.932 9.11615C32.8397 9.15553 32.8133 9.23454 32.7341 9.2937C32.6681 9.3463 32.5693 9.36591 32.4836 9.38554C32.3584 9.42486 32.3584 9.43804 32.3318 9.56975C32.3121 9.52361 32.2726 9.50378 32.2265 9.51688C32.2066 9.60908 32.1735 9.67491 32.1405 9.74732C32.0876 9.87241 32.0942 9.84607 32.1995 9.89894ZM35.2107 9.55458C35.1646 9.54791 35.1383 9.51493 35.0988 9.5017C35.0921 9.56756 35.1184 9.64007 35.0524 9.66632C34.9932 9.61352 34.9078 9.48163 34.9277 9.39602C34.9675 9.23797 35.0199 9.44887 35.1121 9.42925C35.1121 9.40949 35.1253 9.39633 35.1254 9.37657C35.132 9.37658 35.1452 9.34366 35.1452 9.33707C35.1714 9.40958 35.2241 9.45578 35.2107 9.55458ZM34.927 9.82423C34.9336 9.85718 34.9533 9.90332 34.9862 9.90338C35.0784 9.91011 35.0127 9.83095 35.0457 9.79807C35.0984 9.73886 35.1973 9.73243 35.2301 9.82471C35.2435 9.68639 35.3949 9.76568 35.4016 9.64052C35.4148 9.64054 35.4214 9.64055 35.4346 9.63399C35.4479 9.55495 35.4283 9.42317 35.4021 9.34407C35.3825 9.27816 35.2509 9.15937 35.2971 9.08697C35.4028 8.91586 35.5008 9.41669 35.5073 9.48917C35.5138 9.56165 35.4939 9.62091 35.5267 9.71319C35.5595 9.7923 35.5989 9.86483 35.612 9.9439C35.5396 9.89108 35.5397 9.80544 35.4871 9.75924C35.5132 9.89763 35.408 9.81182 35.3552 9.85126C35.3024 9.89729 35.3681 10.0028 35.3285 10.0423C35.2428 10.1146 35.2431 9.90379 35.2234 9.89058C35.151 9.85094 35.1179 9.92994 35.131 9.98925C35.1178 9.98264 35.0981 9.98261 35.0849 9.96941C35.0848 10.0551 35.1176 10.1407 35.1043 10.2198C34.9923 10.1801 35.0126 9.86389 34.8609 9.99541C34.8544 9.92952 34.7953 9.79108 34.927 9.82423ZM34.7563 9.46821L34.7826 9.50119C34.8287 9.50126 34.8547 9.75823 34.7625 9.71197C34.6901 9.6855 34.7431 9.50772 34.7563 9.46821ZM34.3546 9.3424C34.4271 9.32934 34.4007 9.37541 34.4138 9.42155C34.4335 9.49405 34.4136 9.57966 34.4003 9.64552C34.3015 9.62559 34.3215 9.49387 34.3084 9.41479C34.2953 9.36207 34.3085 9.34892 34.3546 9.3424ZM33.2344 9.55802C33.2608 9.51194 33.2938 9.47906 33.307 9.43296C33.3269 9.38688 33.2743 9.28798 33.3336 9.29466C33.3864 9.2618 33.4324 9.32776 33.4257 9.38704C33.228 9.43942 33.3787 9.92058 33.2272 9.90716C33.2011 9.78854 33.1815 9.66334 33.2344 9.55802ZM33.0498 9.63019L33.0234 9.6565C33.0893 9.65002 33.089 9.83448 33.0166 9.79483C32.9508 9.76179 32.9839 9.64326 33.0498 9.63019ZM32.7074 9.52424C32.7402 9.57699 32.7336 9.63627 32.7203 9.69554C32.7665 9.61656 32.7272 9.52427 32.78 9.43871C32.8196 9.3729 32.8987 9.35985 32.912 9.28081C32.9186 9.30059 32.9449 9.28086 32.9383 9.28744C32.9381 9.43896 32.9115 9.57068 32.9245 9.72222C32.931 9.76176 32.9571 9.91332 32.8781 9.88684C32.8254 9.867 32.852 9.75504 32.8191 9.72205C32.8058 9.80109 32.7135 9.84047 32.6344 9.82716C32.6343 9.88645 32.654 9.95895 32.5749 9.95224C32.5092 9.84014 32.5821 9.58333 32.7074 9.52424Z" fill="#FF3720"/>
</g>
<path d="M55.9838 34.0278L67.7903 8.80472H73.157L85.0351 34.0278H78.4162L75.3752 27.087L77.9154 28.9117H63.1035L65.6079 27.087L62.6026 34.0278H55.9838ZM70.4379 15.6024L66.2519 25.5843L65.2501 23.9028H75.7329L74.8385 25.5843L70.6168 15.6024H70.4379ZM85.52 34.0278V20.7902C85.52 19.9792 85.4962 19.1563 85.4485 18.3215C85.4008 17.4867 85.3292 16.6638 85.2338 15.8529H91.3875L91.7453 19.0013H91.3518C91.8765 17.9041 92.6517 17.0455 93.6773 16.4253C94.7029 15.7813 95.9074 15.4593 97.2908 15.4593C98.6265 15.4593 99.7595 15.7813 100.69 16.4253C101.644 17.0455 102.335 18.0353 102.765 19.3948H102.157C102.753 18.1546 103.611 17.1886 104.733 16.4969C105.877 15.8052 107.153 15.4593 108.561 15.4593C110.636 15.4593 112.186 16.0914 113.212 17.3555C114.237 18.5958 114.75 20.5397 114.75 23.1873V34.0278H108.346V23.4019C108.346 22.2809 108.179 21.4938 107.845 21.0406C107.511 20.5636 106.975 20.3251 106.235 20.3251C105.305 20.3251 104.577 20.659 104.053 21.3268C103.552 21.9947 103.301 22.913 103.301 24.0817V34.0278H96.933V23.4019C96.933 22.2809 96.7541 21.4938 96.3964 21.0406C96.0625 20.5636 95.5377 20.3251 94.8222 20.3251C93.892 20.3251 93.1645 20.659 92.6397 21.3268C92.1389 21.9947 91.8884 22.913 91.8884 24.0817V34.0278H85.52ZM126.944 34.4214C124.917 34.4214 123.164 34.0398 121.685 33.2765C120.206 32.5133 119.061 31.428 118.25 30.0208C117.439 28.5897 117.034 26.8962 117.034 24.9404C117.034 22.9607 117.439 21.2672 118.25 19.86C119.061 18.4527 120.206 17.3675 121.685 16.6042C123.164 15.841 124.917 15.4593 126.944 15.4593C128.948 15.4593 130.689 15.841 132.168 16.6042C133.646 17.3675 134.791 18.4646 135.602 19.8957C136.413 21.303 136.819 22.9845 136.819 24.9404C136.819 26.8723 136.413 28.5539 135.602 29.985C134.791 31.4161 133.646 32.5133 132.168 33.2765C130.689 34.0398 128.948 34.4214 126.944 34.4214ZM126.944 29.6988C127.994 29.6988 128.828 29.3291 129.449 28.5897C130.069 27.8264 130.379 26.61 130.379 24.9404C130.379 23.2707 130.069 22.0662 129.449 21.3268C128.828 20.5636 127.994 20.182 126.944 20.182C125.871 20.182 125.024 20.5636 124.404 21.3268C123.784 22.0662 123.474 23.2707 123.474 24.9404C123.474 26.61 123.784 27.8264 124.404 28.5897C125.024 29.3291 125.871 29.6988 126.944 29.6988ZM139.223 34.0278V20.8259C139.223 19.9911 139.199 19.1563 139.151 18.3215C139.103 17.4867 139.032 16.6638 138.936 15.8529H145.09L145.77 21.4342H144.804C145.042 20.0746 145.424 18.9536 145.949 18.0711C146.473 17.1886 147.129 16.5327 147.916 16.1033C148.704 15.674 149.634 15.4593 150.707 15.4593C151.208 15.4593 151.578 15.4832 151.816 15.5309C152.079 15.5547 152.353 15.6263 152.639 15.7455V21.3268C152.043 21.0645 151.566 20.8975 151.208 20.8259C150.85 20.7544 150.385 20.7186 149.813 20.7186C148.835 20.7186 148.036 20.8975 147.416 21.2553C146.795 21.5892 146.342 22.1139 146.056 22.8295C145.794 23.545 145.663 24.4633 145.663 25.5843V34.0278H139.223ZM163.119 34.4214C159.828 34.4214 157.264 33.5747 155.427 31.8812C153.614 30.1877 152.708 27.8622 152.708 24.9046C152.708 23.068 153.09 21.4342 153.853 20.0031C154.616 18.572 155.689 17.4629 157.073 16.6758C158.456 15.8648 160.078 15.4593 161.938 15.4593C163.775 15.4593 165.302 15.8648 166.518 16.6758C167.758 17.4629 168.688 18.56 169.309 19.9673C169.929 21.3507 170.239 22.9607 170.239 24.7972V26.1568H158.039V23.1515H165.552L164.944 23.6524C164.944 22.2928 164.681 21.2911 164.157 20.6471C163.656 19.9792 162.94 19.6453 162.01 19.6453C160.937 19.6453 160.114 20.0508 159.541 20.8617C158.993 21.6488 158.718 22.8414 158.718 24.4395V25.0835C158.718 26.6815 159.112 27.8503 159.899 28.5897C160.686 29.3291 161.819 29.6988 163.298 29.6988C164.252 29.6988 165.147 29.5914 165.981 29.3768C166.84 29.1621 167.651 28.8162 168.414 28.3392L170.06 32.4894C169.154 33.1095 168.104 33.5866 166.912 33.9205C165.719 34.2544 164.455 34.4214 163.119 34.4214ZM173.021 34.0278V29.1979L180.677 21.2195C181.607 20.2654 182.275 19.4306 182.681 18.7151C183.086 17.9995 183.289 17.2721 183.289 16.5327C183.289 15.6263 182.979 14.9465 182.359 14.4933C181.762 14.0402 180.892 13.8136 179.747 13.8136C178.793 13.8136 177.815 13.9925 176.813 14.3502C175.835 14.6841 174.845 15.2327 173.844 15.996L171.804 11.2018C172.925 10.3431 174.273 9.66338 175.847 9.16249C177.421 8.66161 179.043 8.41117 180.713 8.41117C183.647 8.41117 185.877 9.04323 187.403 10.3074C188.954 11.5715 189.729 13.3962 189.729 15.7813C189.729 17.3078 189.371 18.7747 188.656 20.182C187.964 21.5653 186.807 23.0441 185.185 24.6184L179.318 30.3428V28.6612H190.659V34.0278H173.021ZM202.774 34.0278V29.7703H192.398V25.1908L203.775 8.80472H209.035V24.8688H212.326V29.7703H209.035V34.0278H202.774ZM202.774 24.8688V16.6042H203.704L197.014 26.3715V24.8688H202.774Z" fill="white"/>
<defs>
<clipPath id="clip0_2_6948">
<rect width="25.725" height="25.725" fill="white" transform="translate(7.53357 10.2798) rotate(-13.3993)"/>
</clipPath>
<clipPath id="clip1_2_6948">
<rect width="5.79733" height="5.79733" fill="white" transform="translate(31.5209 5.78711) rotate(0.0912537)"/>
</clipPath>
</defs>
</svg>
