<svg width="47" height="43" viewBox="0 0 47 43" fill="none" xmlns="http://www.w3.org/2000/svg">
<path d="M23.5 42.4576L20.1766 39.478C16.3184 36.0018 13.1287 33.0031 10.6075 30.4819C8.08626 27.9607 6.08076 25.6974 4.59096 23.6919C3.10116 21.6864 2.06021 19.8432 1.46811 18.1624C0.876006 16.4816 0.579956 14.7626 0.579956 13.0054C0.579956 9.41461 1.78326 6.41591 4.18986 4.00931C6.59646 1.60271 9.59516 0.399414 13.186 0.399414C15.1724 0.399414 17.0633 0.819614 18.8587 1.66001C20.6541 2.50041 22.2012 3.68461 23.5 5.21261C24.7988 3.68461 26.3459 2.50041 28.1413 1.66001C29.9367 0.819614 31.8276 0.399414 33.814 0.399414C37.4048 0.399414 40.4035 1.60271 42.8101 4.00931C45.2167 6.41591 46.42 9.41461 46.42 13.0054C46.42 14.7626 46.1239 16.4816 45.5318 18.1624C44.9397 19.8432 43.8988 21.6864 42.409 23.6919C40.9192 25.6974 38.9137 27.9607 36.3925 30.4819C33.8713 33.0031 30.6816 36.0018 26.8234 39.478L23.5 42.4576Z" fill="white"/>
<g clip-path="url(#clip0_2022_4464)">
<path d="M11.9424 25.4858C12.1672 25.6726 12.8145 25.4884 13.0352 25.4058C12.7738 25.3178 12.5179 25.3787 12.2998 25.2203C12.6031 24.7274 14.151 25.17 14.7495 24.9072C14.778 24.9004 15.1355 24.635 15.1355 24.635C15.195 24.3804 14.8483 24.3127 14.8497 24.1922C14.8605 23.8591 15.5701 23.8102 15.9113 23.7289C16.281 23.6409 16.8064 23.5758 17.0366 23.2806C17.2884 22.9501 17.2776 22.6522 17.6283 22.3583C18.2728 21.784 18.8077 21.5064 19.2558 20.7385C19.4873 20.3227 19.5239 20.2239 20.0276 20.194C20.205 20.1818 20.2308 20.4161 20.4447 20.305C20.6086 20.2359 20.5476 19.98 20.641 19.8676C20.943 19.4951 21.2396 19.6048 21.6106 19.3962C21.9816 19.1876 22.0872 18.6215 22.2049 18.2329C22.6098 18.1665 22.8171 18.658 23.3005 18.5429C23.7339 18.4697 23.9721 18.0823 24.3852 17.9239C24.9119 17.7383 25.2586 17.8059 25.7095 17.4281C26.0318 17.1409 26.3134 16.6832 26.7264 16.5247C27.111 17.004 26.9581 18.0021 27.5973 17.9099C27.8031 17.891 29.233 16.8291 28.8255 17.7676C29.2237 17.6728 30.0037 17.6673 30.135 17.3355C30.1499 17.9029 30.5968 17.8866 31.0518 17.7782C31.4716 17.6481 31.7776 17.5452 32.2178 17.5004C32.6863 17.4489 32.9923 17.346 33.209 16.9938C33.4039 16.6769 33.4025 16.1664 33.7871 16.0147C33.9253 16.3424 33.5516 17.4231 34.3735 16.8366C34.731 16.5712 34.7377 15.9685 34.8907 15.6015C35.0234 15.7803 35.0993 15.9726 35.1535 16.2001C35.7344 16.242 35.6856 15.5324 35.5339 15.1478C35.4405 15.2602 35.3619 15.309 35.4161 15.5365C35.0058 15.4539 35.0965 14.9515 34.915 14.6942C34.8419 14.8919 35.068 14.9583 34.8893 15.091C34.1702 14.7214 33.688 14.085 32.9039 13.821C32.48 13.6816 32.0345 13.5774 31.6174 13.4664C31.1935 13.3269 30.863 13.0751 30.4324 12.9072C29.7052 12.6297 28.8696 12.5282 28.076 12.4769C27.162 12.4242 26.6487 12.0356 25.8659 11.6511C25.1183 11.2882 24.0986 11.1705 23.3024 11.3602C22.8758 11.4618 22.5265 11.6352 22.1825 11.9575C21.8603 12.2447 21.6992 12.7038 21.3701 12.9625C20.5834 13.5706 19.5962 13.0845 18.7864 13.2173C17.8344 13.384 17.1154 14.2765 16.5332 14.9862C15.5773 16.1455 14.7663 17.6609 14.2613 19.0734C14.13 19.4052 14.0407 19.7871 13.839 20.0756C13.6372 20.364 13.2662 20.5726 13.1281 20.876C13.0049 21.1157 12.9643 21.5761 12.9969 21.8388C13.0348 22.2505 13.2258 22.2952 13.3287 22.6012C13.0579 22.7258 12.6056 22.5932 12.4756 22.8044C13.2096 23.1104 12.1574 23.361 11.9774 23.6143C11.8406 23.7971 11.5346 24.5311 11.5536 24.737C12.0344 24.8628 11.7176 25.2989 11.9424 25.4858ZM32.1566 15.3513L32.1985 15.4014C32.8255 15.1319 32.4451 16.1841 32.2583 16.4089C31.898 16.2844 31.7788 15.5315 32.1566 15.3513ZM28.7483 17.0648C28.6696 16.4825 29.1083 15.9272 29.0866 15.3314C29.0527 14.5581 29.5985 15.2094 29.4293 15.7606C29.3684 16.1357 29.2642 17.2123 28.7483 17.0648ZM22.3197 15.561C22.3102 15.1426 22.6284 15.217 22.8181 15.3822C22.9657 15.4973 23.0673 15.9239 23.1431 16.1162C23.3355 16.6714 23.6267 17.2631 23.7053 17.8454C23.2571 17.9822 21.8634 15.7899 22.3197 15.561ZM21.595 13.7804C21.9497 13.1249 22.6351 14.6144 22.5268 14.7905C22.21 15.2266 21.3202 14.2665 21.595 13.7804ZM21.1674 16.5267C21.2405 16.329 21.426 16.2247 21.6319 16.2057C21.6847 16.5537 21.9867 16.8123 22.0112 17.1671C21.7187 17.327 21.2352 16.8111 21.1674 16.5267ZM20.313 17.4815C20.2913 16.8857 20.8317 17.388 20.9576 17.5383C21.1256 17.7387 21.2922 18.0596 21.4033 18.2736C20.9821 18.5242 20.3158 17.8715 20.313 17.4815ZM19.3137 18.0802C19.3218 17.9881 19.4071 17.9678 19.5263 18.0896C19.7159 18.2548 20.0613 18.443 20.2929 18.6583C20.4188 18.8086 20.5163 18.9657 20.5001 19.1499C20.3973 20.1059 19.6199 19.2393 19.475 18.8832C19.4194 18.7762 19.2691 18.2711 19.3137 18.0802ZM15.8229 20.204C15.3449 20.4681 14.5188 20.154 14.4903 19.5297C14.6473 19.4322 14.8532 19.4132 14.9656 19.5067C14.9019 19.4918 14.8518 19.5338 14.8166 19.5121C14.8288 19.6895 15.6563 19.8831 15.8229 20.204ZM15.0687 21.0748C15.3774 20.7308 16.2021 21.1654 16.2537 21.634C15.9544 21.7653 15.2353 21.3957 15.0687 21.0748ZM15.0851 22.7838C15.3452 22.9923 15.8841 22.9841 15.9722 23.3538C15.6079 23.5908 15.2016 23.1467 15.0851 22.7838Z" fill="#FF3720"/>
<path d="M15.2997 27.7215C15.6463 27.7892 15.9131 28.0261 16.2449 28.1575C16.6052 28.282 16.9952 28.2793 17.4204 28.2982C17.7252 28.9468 21.1527 29.3323 21.0063 28.4657C21.4248 28.4561 21.957 29.0506 22.3525 29.1968C22.882 29.4012 23.4304 29.1804 23.9707 29.0517C25.2504 28.7468 26.3459 28.4258 27.5145 27.907C28.327 27.5331 29.4049 27.5167 29.9803 26.7786C30.239 26.4766 30.2362 26.0866 30.3608 25.7264C30.5286 25.2957 30.7358 25.1562 31.0513 24.8407C31.3519 24.5887 31.4629 24.1716 31.735 23.9265C32.079 23.6042 32.362 23.6569 32.6504 23.2276C32.8738 22.9039 33.0674 22.7076 32.9225 22.3514C32.722 21.8883 31.984 21.9439 31.9907 21.3413C32.4592 21.2898 32.7762 22.1158 33.1879 22.0778C33.4506 22.0453 33.7918 21.333 33.8581 21.1068C34.0043 20.7114 33.8539 20.2063 34.0638 19.8257C34.2885 19.3815 34.6785 19.3788 34.4442 18.7735C33.9621 18.7681 34.13 18.3375 33.7914 18.1777C33.3472 17.953 33.2565 18.4554 32.9437 18.5299C32.6025 18.6112 32.4223 18.2334 32.0892 18.2226C31.6355 18.2105 31.5381 18.6844 31.19 18.7373C30.8989 18.7766 30.6402 18.4476 30.4005 18.3244C30.0267 18.1429 30.0186 18.235 29.6489 18.3231C29.1872 18.403 28.0401 18.2556 27.9536 19.0275C27.9211 19.3958 27.397 19.3404 27.5068 19.6748C27.6097 19.9809 28.0728 19.7804 28.0458 20.2977C27.5434 20.207 27.2928 19.7859 26.9042 20.2992C26.5373 20.7773 26.4981 21.1172 25.7668 21.2012C25.2414 21.2663 24.8378 21.2122 25.0085 21.8026C25.083 22.1154 25.8482 22.8046 25.2145 23.0457C25.14 22.7329 24.7119 21.6929 24.4154 21.5832C24.0484 21.4303 23.0504 21.9084 22.9759 22.2267C23.1371 22.3986 23.347 22.6491 23.4297 22.8698C23.0112 22.8794 22.9068 22.0628 22.3503 22.3757C22.3679 22.7021 22.6483 22.9959 22.5806 23.3426C22.4033 23.9858 22.0132 23.3575 21.7898 23.0501C21.4335 22.564 21.3198 22.5911 20.8106 22.472C19.8843 22.2419 19.3724 21.7328 18.5965 22.6389C18.2445 23.0533 18.0576 23.2781 17.65 23.5855C17.2926 23.851 17.2601 24.2194 16.9798 24.5566C16.7497 24.8518 16.3434 25.0387 15.9941 25.2121C15.4944 25.5115 15.5079 25.5683 15.5297 26.1642C15.397 25.9854 15.206 25.9408 15.0205 26.0451C15.03 26.4635 14.9556 26.7818 14.8879 27.1284C14.7891 27.7229 14.7905 27.6024 15.2997 27.7215ZM27.9364 23.1185C27.7306 23.1375 27.583 23.0224 27.3988 23.0062C27.4381 23.2973 27.6264 23.583 27.3691 23.7645C27.059 23.598 26.5538 23.1173 26.5511 22.7273C26.5591 22.0042 27.0034 22.8599 27.3812 22.6798C27.3608 22.5945 27.4042 22.5241 27.3838 22.4387C27.4123 22.432 27.4353 22.2762 27.4285 22.2478C27.6168 22.5335 27.8917 22.6784 27.9364 23.1185ZM26.9914 24.5757C27.0537 24.7111 27.1864 24.8899 27.3286 24.856C27.7335 24.7896 27.3678 24.5161 27.4762 24.34C27.6427 24.0299 28.0625 23.8998 28.2995 24.2641C28.2141 23.6534 28.9495 23.8388 28.8492 23.2917C28.9061 23.2782 28.9345 23.2714 28.9846 23.2294C28.9602 22.8746 28.7394 22.3262 28.5443 22.012C28.3913 21.748 27.7006 21.3716 27.8251 21.0114C28.104 20.1636 29.0454 22.2232 29.1484 22.5293C29.2513 22.8353 29.227 23.1116 29.464 23.4758C29.6875 23.7832 29.9326 24.0554 30.0708 24.3831C29.7038 24.2301 29.6157 23.8604 29.3408 23.7155C29.5968 24.2856 29.0538 24.0243 28.8669 24.2491C28.6868 24.5024 29.0796 24.8896 28.9496 25.1009C28.6544 25.5018 28.4377 24.5918 28.3388 24.5552C27.9853 24.4591 27.9245 24.8343 28.0423 25.0766C27.9786 25.0618 27.8933 25.0821 27.8229 25.0387C27.911 25.4084 28.1412 25.7442 28.1656 26.099C27.6416 26.0436 27.4017 24.6583 26.8831 25.3828C26.787 25.1052 26.3888 24.569 26.9914 24.5757ZM25.8862 23.2162L26.0338 23.3313C26.2329 23.2839 26.6108 24.3659 26.1653 24.2616C25.8254 24.2224 25.87 23.4004 25.8862 23.2162ZM24.0228 23.0892C24.3221 22.9578 24.2558 23.1839 24.36 23.3694C24.5199 23.6619 24.5226 24.0519 24.5335 24.3499C24.0866 24.3662 24.0364 23.7771 23.8983 23.4494C23.7872 23.2354 23.8305 23.165 24.0228 23.0892ZM19.412 25.1792C19.4784 24.9531 19.5867 24.777 19.5961 24.5644C19.634 24.345 19.3049 23.9726 19.5676 23.9401C19.7613 23.7437 20.0281 23.9807 20.0606 24.2434C19.2617 24.6741 20.4102 26.5942 19.7426 26.6932C19.507 26.2084 19.2929 25.6884 19.412 25.1792ZM18.6903 25.6817L18.6037 25.8226C18.8813 25.7264 19.0709 26.5226 18.7175 26.4265C18.3992 26.3521 18.4195 25.8063 18.6903 25.6817ZM17.1032 25.579C17.2996 25.7726 17.3321 26.0353 17.3362 26.3048C17.454 25.9161 17.1885 25.5587 17.3279 25.1348C17.4308 24.8098 17.7585 24.6716 17.7341 24.3168C17.7829 24.3953 17.8763 24.2829 17.8546 24.3181C18.0104 24.9722 18.0322 25.568 18.2448 26.2085C18.3139 26.3724 18.5835 26.9994 18.2151 26.9669C17.9673 26.9358 17.9659 26.4252 17.7899 26.3169C17.8143 26.6717 17.4568 26.9372 17.102 26.9616C17.163 27.2175 17.3228 27.51 16.9748 27.5629C16.5752 27.1472 16.6238 25.9636 17.1032 25.579Z" fill="#FF3720"/>
</g>
<g clip-path="url(#clip1_2022_4464)">
<path d="M32.1629 9.63335C32.2023 9.68611 32.3538 9.67976 32.4065 9.67326C32.3539 9.64024 32.2946 9.64014 32.2551 9.59396C32.3475 9.50188 32.6635 9.68026 32.8084 9.65414C32.815 9.65415 32.9073 9.61477 32.9073 9.61477C32.9338 9.56211 32.8613 9.52905 32.868 9.50271C32.8878 9.43028 33.0459 9.45688 33.125 9.457C33.2106 9.45714 33.3292 9.47051 33.3951 9.41791C33.4677 9.35873 33.481 9.29287 33.5733 9.24691C33.7447 9.15495 33.8765 9.12222 34.0151 8.97751C34.0877 8.89857 34.1009 8.87883 34.2129 8.89877C34.2524 8.90542 34.2457 8.95811 34.2984 8.94502C34.338 8.93849 34.3381 8.8792 34.3644 8.85948C34.4502 8.79374 34.5094 8.83336 34.6017 8.80716C34.694 8.78095 34.7469 8.66245 34.7931 8.58347C34.8853 8.59021 34.9049 8.70882 35.0169 8.709C35.1157 8.71574 35.1883 8.64339 35.2871 8.63038C35.4123 8.6174 35.4847 8.65045 35.6034 8.59135C35.6891 8.54537 35.7749 8.45987 35.8737 8.44685C35.9328 8.57211 35.8468 8.78279 35.9917 8.79619C36.0379 8.80286 36.407 8.64533 36.2684 8.82957C36.3606 8.82972 36.5318 8.86952 36.5781 8.80372C36.5515 8.92884 36.6503 8.94876 36.7557 8.94893C36.8545 8.9425 36.927 8.93603 37.0258 8.94936C37.1312 8.96271 37.2037 8.95623 37.2696 8.89046C37.329 8.83126 37.3556 8.71931 37.4478 8.70628C37.4609 8.78536 37.3222 9.00254 37.5331 8.91723C37.6254 8.87785 37.6586 8.74615 37.7114 8.67376C37.7311 8.71991 37.7376 8.76604 37.7375 8.81874C37.8626 8.85846 37.8892 8.7004 37.8762 8.60815C37.8498 8.62787 37.83 8.63443 37.8299 8.68713C37.7444 8.64746 37.7906 8.54213 37.7644 8.47621C37.738 8.5157 37.7841 8.54212 37.7379 8.56181C37.5998 8.44301 37.5275 8.2782 37.3696 8.17913C37.284 8.12629 37.1919 8.08003 37.1063 8.03378C37.0208 7.98094 36.9616 7.90837 36.876 7.84895C36.7313 7.7499 36.5535 7.68374 36.3823 7.63076C36.1847 7.57116 36.0927 7.45902 35.9414 7.3336C35.7966 7.21479 35.5794 7.13539 35.3949 7.1351C35.2961 7.13494 35.2104 7.15457 35.1181 7.20712C35.0324 7.2531 34.9729 7.34524 34.8872 7.38463C34.6829 7.47653 34.4921 7.31812 34.3076 7.30465C34.0902 7.29113 33.8858 7.44891 33.7209 7.57382C33.4504 7.77761 33.1931 8.06707 33.0081 8.35005C32.9619 8.41586 32.9223 8.49485 32.8629 8.54746C32.8035 8.60007 32.7113 8.62627 32.665 8.68549C32.6254 8.73154 32.5923 8.83031 32.5857 8.88959C32.5723 8.9818 32.6118 9.00162 32.6183 9.0741C32.5524 9.08717 32.4603 9.03432 32.4207 9.07379C32.5654 9.17942 32.3217 9.17903 32.2689 9.22507C32.2293 9.25794 32.1237 9.40271 32.117 9.44881C32.2158 9.50167 32.1234 9.58058 32.1629 9.63335ZM37.1254 8.47519L37.1319 8.48838C37.2835 8.46227 37.1448 8.67286 37.0921 8.7123C37.0197 8.66607 37.0331 8.49481 37.1254 8.47519ZM36.2884 8.6715C36.3018 8.53976 36.4271 8.44114 36.4537 8.30943C36.4869 8.13819 36.5723 8.30962 36.5062 8.4215C36.4731 8.50051 36.3937 8.73096 36.2884 8.6715ZM34.9587 8.004C34.9786 7.9118 35.0444 7.94485 35.0773 7.99102C35.1036 8.024 35.1035 8.12282 35.11 8.16894C35.1229 8.30072 35.1556 8.44571 35.1423 8.57744C35.0368 8.58386 34.8467 8.03018 34.9587 8.004ZM34.8935 7.57569C35.0057 7.4507 35.0776 7.81314 35.0446 7.84603C34.9523 7.92494 34.8077 7.66778 34.8935 7.57569ZM34.6554 8.15504C34.6818 8.11556 34.728 8.10245 34.7741 8.10912C34.7674 8.18816 34.82 8.26071 34.8067 8.33974C34.7342 8.35939 34.6553 8.22092 34.6554 8.15504ZM34.418 8.31936C34.4446 8.18765 34.5366 8.32614 34.5563 8.3657C34.5825 8.41844 34.6022 8.49753 34.6153 8.55025C34.5098 8.58302 34.3981 8.40497 34.418 8.31936ZM34.1675 8.39802C34.1742 8.37826 34.1939 8.37829 34.2136 8.41127C34.2465 8.45743 34.3123 8.51683 34.3517 8.57618C34.3714 8.61574 34.3845 8.65529 34.3713 8.6948C34.2985 8.8989 34.1737 8.66813 34.1607 8.58247C34.1541 8.5561 34.1477 8.43751 34.1675 8.39802ZM33.2909 8.6799C33.1723 8.71265 33.0077 8.60039 33.0343 8.46209C33.0739 8.44898 33.12 8.45564 33.1397 8.48202C33.1265 8.47541 33.1133 8.48198 33.1068 8.47538C33.1001 8.5149 33.2713 8.60081 33.2909 8.6799ZM33.0798 8.83108C33.1656 8.77193 33.3235 8.91053 33.3101 9.01591C33.2376 9.02897 33.0995 8.91017 33.0798 8.83108ZM32.9936 9.20646C33.0396 9.26582 33.1582 9.29236 33.158 9.378C33.0657 9.4108 33.0001 9.29211 32.9936 9.20646Z" fill="#FF3720"/>
<path d="M32.7811 10.2998C32.8535 10.3329 32.8995 10.3988 32.9653 10.445C33.0377 10.4913 33.1233 10.5112 33.2155 10.5377C33.2482 10.6958 33.979 10.9605 33.9925 10.7629C34.0847 10.7828 34.1701 10.9411 34.2491 10.9939C34.3544 11.0665 34.4861 11.047 34.6113 11.0472C34.9078 11.0476 35.1647 11.0349 35.4481 10.9826C35.6458 10.9434 35.8829 10.9965 36.0478 10.865C36.1203 10.8124 36.1402 10.7268 36.1864 10.6544C36.2459 10.5689 36.2986 10.5492 36.3843 10.4966C36.4634 10.4572 36.5097 10.3716 36.5822 10.3322C36.6745 10.2797 36.7338 10.3061 36.8196 10.2272C36.8855 10.168 36.9383 10.1352 36.9252 10.0495C36.9057 9.93746 36.741 9.91085 36.7742 9.77915C36.8795 9.79249 36.9056 9.99017 36.9978 10.0035C37.0571 10.0102 37.1693 9.87201 37.1957 9.82593C37.2485 9.74696 37.2421 9.62837 37.3081 9.55601C37.3807 9.47048 37.4663 9.49038 37.4468 9.34542C37.3414 9.3189 37.4009 9.23335 37.3351 9.18054C37.2496 9.10794 37.2033 9.21327 37.1308 9.21316C37.0517 9.21303 37.0321 9.12077 36.9597 9.10089C36.8609 9.07438 36.8146 9.17313 36.7356 9.16641C36.6697 9.15972 36.6303 9.07401 36.5843 9.03441C36.5119 8.97501 36.5053 8.99476 36.4197 8.99462C36.3143 8.98787 36.0707 8.89525 36.0111 9.05985C35.9846 9.13886 35.8727 9.09916 35.8792 9.17822C35.8856 9.2507 35.9977 9.23112 35.9645 9.34306C35.8592 9.29677 35.8264 9.19132 35.7143 9.28337C35.6088 9.36884 35.5823 9.44127 35.4176 9.42124C35.2991 9.40788 35.2135 9.3748 35.2198 9.51316C35.2197 9.58562 35.3512 9.77688 35.1996 9.7964C35.1997 9.72394 35.1606 9.47353 35.1014 9.43391C35.029 9.38109 34.7852 9.43341 34.7521 9.49923C34.7784 9.54539 34.8112 9.61132 34.8177 9.66404C34.7255 9.64413 34.7456 9.4597 34.6072 9.499C34.5939 9.57145 34.6399 9.65058 34.6068 9.72299C34.5342 9.85463 34.4817 9.69644 34.4489 9.61733C34.3964 9.49208 34.37 9.49204 34.2647 9.43917C34.0738 9.34005 33.9884 9.20156 33.7707 9.35933C33.6718 9.43164 33.619 9.47108 33.5136 9.51703C33.4213 9.55641 33.3948 9.63542 33.3157 9.69458C33.2497 9.74718 33.1508 9.76679 33.0652 9.78641C32.9399 9.82574 32.9399 9.83892 32.9133 9.97063C32.8937 9.92449 32.8542 9.90466 32.808 9.91776C32.7881 10.01 32.7551 10.0758 32.722 10.1482C32.6691 10.2733 32.6757 10.2469 32.7811 10.2998ZM35.7923 9.95546C35.7462 9.94879 35.7199 9.91581 35.6804 9.90257C35.6737 9.96844 35.6999 10.041 35.634 10.0672C35.5748 10.0144 35.4894 9.88251 35.5093 9.7969C35.549 9.63885 35.6014 9.84975 35.6937 9.83013C35.6937 9.81036 35.7069 9.79721 35.7069 9.77745C35.7135 9.77746 35.7267 9.74454 35.7267 9.73795C35.753 9.81046 35.8056 9.85666 35.7923 9.95546ZM35.5086 10.2251C35.5151 10.2581 35.5348 10.3042 35.5677 10.3043C35.66 10.311 35.5942 10.2318 35.6272 10.1989C35.68 10.1397 35.7788 10.1333 35.8116 10.2256C35.825 10.0873 35.9764 10.1666 35.9832 10.0414C35.9964 10.0414 36.003 10.0414 36.0161 10.0349C36.0294 9.95583 36.0099 9.82404 35.9837 9.74495C35.964 9.67904 35.8324 9.56025 35.8787 9.48785C35.9843 9.31674 36.0824 9.81757 36.0888 9.89005C36.0953 9.96253 36.0755 10.0218 36.1082 10.1141C36.1411 10.1932 36.1805 10.2657 36.1935 10.3448C36.1211 10.292 36.1213 10.2063 36.0686 10.1601C36.0948 10.2985 35.9895 10.2127 35.9367 10.2521C35.884 10.2982 35.9497 10.4037 35.9101 10.4431C35.8243 10.5155 35.8247 10.3047 35.8049 10.2915C35.7325 10.2518 35.6995 10.3308 35.7125 10.3901C35.6994 10.3835 35.6796 10.3835 35.6664 10.3703C35.6663 10.4559 35.6991 10.5416 35.6858 10.6207C35.5739 10.581 35.5941 10.2648 35.4424 10.3963C35.4359 10.3304 35.3769 10.192 35.5086 10.2251ZM35.3379 9.86909L35.3642 9.90207C35.4103 9.90214 35.4362 10.1591 35.3441 10.1129C35.2716 10.0864 35.3246 9.9086 35.3379 9.86909ZM34.9362 9.74328C35.0087 9.73022 34.9823 9.77629 34.9954 9.82243C35.015 9.89493 34.9951 9.98054 34.9818 10.0464C34.883 10.0265 34.903 9.89475 34.89 9.81567C34.8769 9.76295 34.8901 9.74979 34.9362 9.74328ZM33.8159 9.9589C33.8423 9.91282 33.8753 9.87994 33.8886 9.83384C33.9084 9.78776 33.8559 9.68886 33.9151 9.69554C33.9679 9.66268 34.0139 9.72863 34.0072 9.78792C33.8095 9.8403 33.9603 10.3215 33.8088 10.308C33.7826 10.1894 33.763 10.0642 33.8159 9.9589ZM33.6313 10.0311L33.6049 10.0574C33.6708 10.0509 33.6705 10.2354 33.5981 10.1957C33.5323 10.1627 33.5654 10.0441 33.6313 10.0311ZM33.2889 9.92512C33.3218 9.97787 33.3151 10.0372 33.3018 10.0964C33.3481 10.0174 33.3087 9.92515 33.3615 9.83959C33.4012 9.77377 33.4802 9.76072 33.4935 9.68169C33.5001 9.70147 33.5265 9.68174 33.5199 9.68832C33.5196 9.83984 33.4931 9.97156 33.506 10.1231C33.5125 10.1626 33.5387 10.3142 33.4596 10.2877C33.407 10.2679 33.4335 10.1559 33.4006 10.1229C33.3873 10.202 33.295 10.2413 33.216 10.228C33.2159 10.2873 33.2355 10.3598 33.1565 10.3531C33.0908 10.241 33.1637 9.98421 33.2889 9.92512Z" fill="#FF3720"/>
</g>
<defs>
<clipPath id="clip0_2022_4464">
<rect width="25.725" height="25.725" fill="white" transform="translate(8.11511 10.6807) rotate(-13.3993)"/>
</clipPath>
<clipPath id="clip1_2022_4464">
<rect width="5.79733" height="5.79733" fill="white" transform="translate(32.1024 6.18799) rotate(0.0912537)"/>
</clipPath>
</defs>
</svg>
